<svg width="39" height="39" viewBox="0 0 39 39" fill="none" xmlns="http://www.w3.org/2000/svg">
<path d="M11 19H14C14.5304 19 15.0391 19.2107 15.4142 19.5858C15.7893 19.9609 16 20.4696 16 21V24C16 24.5304 15.7893 25.0391 15.4142 25.4142C15.0391 25.7893 14.5304 26 14 26H13C12.4696 26 11.9609 25.7893 11.5858 25.4142C11.2107 25.0391 11 24.5304 11 24V19ZM11 19C11 17.8181 11.2328 16.6478 11.6851 15.5558C12.1374 14.4639 12.8003 13.4718 13.636 12.636C14.4718 11.8003 15.4639 11.1374 16.5558 10.6851C17.6478 10.2328 18.8181 10 20 10C21.1819 10 22.3522 10.2328 23.4442 10.6851C24.5361 11.1374 25.5282 11.8003 26.364 12.636C27.1997 13.4718 27.8626 14.4639 28.3149 15.5558C28.7672 16.6478 29 17.8181 29 19M29 19V24C29 24.5304 28.7893 25.0391 28.4142 25.4142C28.0391 25.7893 27.5304 26 27 26H26C25.4696 26 24.9609 25.7893 24.5858 25.4142C24.2107 25.0391 24 24.5304 24 24V21C24 20.4696 24.2107 19.9609 24.5858 19.5858C24.9609 19.2107 25.4696 19 26 19H29Z" stroke="white" stroke-linecap="round" stroke-linejoin="round"/>
<path d="M29 24V26C29 27.0609 28.5786 28.0783 27.8284 28.8284C27.0783 29.5786 26.0609 30 25 30H20" stroke="white" stroke-linecap="round" stroke-linejoin="round"/>
<circle cx="19.5" cy="19.5" r="18.5" stroke="#E8B157" stroke-width="2"/>
</svg>
