<svg width="50" height="50" viewBox="0 0 50 50" fill="none" xmlns="http://www.w3.org/2000/svg">
<rect width="50" height="50" rx="25" fill="#E8B157"/>
<path d="M26 15C28.3869 15 30.6761 15.9482 32.364 17.636C34.0518 19.3239 35 21.6131 35 24" stroke="white" stroke-width="2" stroke-linecap="round" stroke-linejoin="round"/>
<path d="M26 19C27.3261 19 28.5979 19.5268 29.5355 20.4645C30.4732 21.4021 31 22.6739 31 24" stroke="white" stroke-width="2" stroke-linecap="round" stroke-linejoin="round"/>
<path d="M26.832 29.568C27.0385 29.6628 27.2712 29.6845 27.4917 29.6294C27.7122 29.5744 27.9073 29.4458 28.045 29.265L28.4 28.8C28.5863 28.5516 28.8279 28.35 29.1056 28.2111C29.3833 28.0723 29.6895 28 30 28H33C33.5304 28 34.0391 28.2107 34.4142 28.5858C34.7893 28.9609 35 29.4696 35 30V33C35 33.5304 34.7893 34.0391 34.4142 34.4142C34.0391 34.7893 33.5304 35 33 35C28.2261 35 23.6477 33.1036 20.2721 29.7279C16.8964 26.3523 15 21.7739 15 17C15 16.4696 15.2107 15.9609 15.5858 15.5858C15.9609 15.2107 16.4696 15 17 15H20C20.5304 15 21.0391 15.2107 21.4142 15.5858C21.7893 15.9609 22 16.4696 22 17V20C22 20.3105 21.9277 20.6167 21.7889 20.8944C21.65 21.1721 21.4484 21.4137 21.2 21.6L20.732 21.951C20.5484 22.0912 20.419 22.2906 20.3658 22.5154C20.3126 22.7401 20.3388 22.9764 20.44 23.184C21.8067 25.9599 24.0544 28.2048 26.832 29.568Z" stroke="white" stroke-width="2" stroke-linecap="round" stroke-linejoin="round"/>
</svg>
